<svg width="28" height="29" viewBox="0 0 28 29" fill="none" xmlns="http://www.w3.org/2000/svg">
<path d="M14.0008 4.82764C11.466 4.82764 11.1479 4.83872 10.1523 4.88403C9.15873 4.92953 8.4805 5.08683 7.88705 5.31764C7.27318 5.55603 6.75245 5.87493 6.23367 6.3939C5.7145 6.91269 5.39561 7.43341 5.15644 8.04709C4.92505 8.64073 4.76754 9.31916 4.72282 10.3124C4.67829 11.308 4.66663 11.6263 4.66663 14.1611C4.66663 16.6959 4.6779 17.013 4.72302 18.0086C4.76871 19.0022 4.92602 19.6804 5.15663 20.2739C5.39522 20.8877 5.71411 21.4085 6.23309 21.9273C6.75168 22.4464 7.2724 22.7661 7.88588 23.0045C8.47972 23.2353 9.15814 23.3926 10.1516 23.4381C11.1471 23.4834 11.4651 23.4945 13.9997 23.4945C16.5347 23.4945 16.8518 23.4834 17.8474 23.4381C18.841 23.3926 19.52 23.2353 20.1138 23.0045C20.7275 22.7661 21.2475 22.4464 21.7661 21.9273C22.2852 21.4085 22.6041 20.8877 22.8433 20.2741C23.0727 19.6804 23.2302 19.002 23.2769 18.0088C23.3216 17.0132 23.3333 16.6959 23.3333 14.1611C23.3333 11.6263 23.3216 11.3081 23.2769 10.3126C23.2302 9.31896 23.0727 8.64073 22.8433 8.04728C22.6041 7.43341 22.2852 6.91269 21.7661 6.3939C21.2469 5.87473 20.7277 5.55584 20.1133 5.31764C19.5183 5.08683 18.8396 4.92953 17.846 4.88403C16.8504 4.83872 16.5335 4.82764 13.9979 4.82764H14.0008ZM13.1635 6.5096C13.4121 6.50921 13.6893 6.5096 14.0008 6.5096C16.4929 6.5096 16.7882 6.51854 17.7723 6.56327C18.6823 6.60488 19.1762 6.75693 19.5052 6.88469C19.9408 7.05385 20.2513 7.25608 20.5778 7.58275C20.9045 7.90942 21.1067 8.22053 21.2762 8.65609C21.404 8.98471 21.5562 9.4786 21.5977 10.3886C21.6424 11.3725 21.6521 11.6681 21.6521 14.1589C21.6521 16.6498 21.6424 16.9453 21.5977 17.9292C21.5561 18.8393 21.404 19.3331 21.2762 19.6618C21.1071 20.0973 20.9045 20.4075 20.5778 20.7339C20.2511 21.0606 19.941 21.2628 19.5052 21.432C19.1766 21.5603 18.6823 21.712 17.7723 21.7536C16.7884 21.7983 16.4929 21.8081 14.0008 21.8081C11.5086 21.8081 11.2132 21.7983 10.2294 21.7536C9.31934 21.7116 8.82545 21.5596 8.49625 21.4318C8.06069 21.2626 7.74957 21.0604 7.4229 20.7337C7.09623 20.4071 6.89401 20.0967 6.72445 19.661C6.5967 19.3324 6.44445 18.8385 6.40303 17.9285C6.35831 16.9446 6.34937 16.649 6.34937 14.1566C6.34937 11.6642 6.35831 11.3702 6.40303 10.3863C6.44464 9.47627 6.5967 8.98237 6.72445 8.65337C6.89362 8.21781 7.09623 7.9067 7.4229 7.58003C7.74957 7.25336 8.06069 7.05113 8.49625 6.88157C8.82525 6.75324 9.31934 6.60157 10.2294 6.55977C11.0904 6.52088 11.424 6.50921 13.1635 6.50727V6.5096ZM18.9829 8.05934C18.3646 8.05934 17.8629 8.56042 17.8629 9.17896C17.8629 9.7973 18.3646 10.299 18.9829 10.299C19.6013 10.299 20.103 9.7973 20.103 9.17896C20.103 8.56062 19.6013 8.05895 18.9829 8.05895V8.05934ZM14.0008 9.36796C11.3538 9.36796 9.20773 11.5141 9.20773 14.1611C9.20773 16.8081 11.3538 18.9532 14.0008 18.9532C16.6478 18.9532 18.7932 16.8081 18.7932 14.1611C18.7932 11.5141 16.6476 9.36796 14.0006 9.36796H14.0008ZM14.0008 11.0499C15.719 11.0499 17.112 12.4427 17.112 14.1611C17.112 15.8792 15.719 17.2722 14.0008 17.2722C12.2825 17.2722 10.8897 15.8792 10.8897 14.1611C10.8897 12.4427 12.2825 11.0499 14.0008 11.0499Z" fill="white"/>
</svg>
