<svg width="1297" height="24" viewBox="0 0 1297 24" fill="none" xmlns="http://www.w3.org/2000/svg">
<path d="M11.6839 21.2412L15.9466 9.75412L11.1681 11.2044L12.1845 2.90271L7.89582 14.4416L12.7263 12.9913L11.6839 21.2412Z" fill="#ED042E"/>
<path d="M34.0388 21.2412L38.3016 9.75412L33.523 11.2044L34.5395 2.90271L30.2508 14.4416L35.0812 12.9913L34.0388 21.2412Z" fill="#ED042E"/>
<path d="M56.3937 21.2412L60.6565 9.75412L55.8779 11.2044L56.8944 2.90271L52.6057 14.4416L57.4362 12.9913L56.3937 21.2412Z" fill="#ED042E"/>
<path d="M78.7487 21.2412L83.0114 9.75412L78.2329 11.2044L79.2494 2.90271L74.9606 14.4416L79.7911 12.9913L78.7487 21.2412Z" fill="#ED042E"/>
<path d="M101.104 21.2412L105.366 9.75412L100.588 11.2044L101.604 2.90271L97.3155 14.4416L102.146 12.9913L101.104 21.2412Z" fill="#ED042E"/>
<path d="M123.458 21.2412L127.721 9.75412L122.943 11.2044L123.959 2.90271L119.67 14.4416L124.501 12.9913L123.458 21.2412Z" fill="#ED042E"/>
<path d="M145.813 21.2412L150.076 9.75412L145.298 11.2044L146.314 2.90271L142.025 14.4416L146.856 12.9913L145.813 21.2412Z" fill="#ED042E"/>
<path d="M168.168 21.2412L172.431 9.75412L167.653 11.2044L168.669 2.90271L164.38 14.4416L169.211 12.9913L168.168 21.2412Z" fill="#ED042E"/>
<path d="M190.523 21.2412L194.786 9.75412L190.008 11.2044L191.024 2.90271L186.735 14.4416L191.566 12.9913L190.523 21.2412Z" fill="#ED042E"/>
<path d="M212.878 21.2412L217.141 9.75412L212.362 11.2044L213.379 2.90271L209.09 14.4416L213.921 12.9913L212.878 21.2412Z" fill="#ED042E"/>
<path d="M235.233 21.2412L239.496 9.75412L234.717 11.2044L235.734 2.90271L231.445 14.4416L236.276 12.9913L235.233 21.2412Z" fill="#ED042E"/>
<path d="M257.588 21.2412L261.851 9.75412L257.072 11.2044L258.089 2.90271L253.8 14.4416L258.631 12.9913L257.588 21.2412Z" fill="#ED042E"/>
<path d="M279.943 21.2412L284.206 9.75412L279.427 11.2044L280.444 2.90271L276.155 14.4416L280.985 12.9913L279.943 21.2412Z" fill="#ED042E"/>
<path d="M302.298 21.2412L306.561 9.75412L301.782 11.2044L302.799 2.90271L298.51 14.4416L303.34 12.9913L302.298 21.2412Z" fill="#ED042E"/>
<path d="M324.653 21.2412L328.916 9.75412L324.137 11.2044L325.154 2.90271L320.865 14.4416L325.695 12.9913L324.653 21.2412Z" fill="#ED042E"/>
<path d="M347.008 21.2412L351.271 9.75412L346.492 11.2044L347.508 2.90271L343.22 14.4416L348.05 12.9913L347.008 21.2412Z" fill="#ED042E"/>
<path d="M369.363 21.2412L373.626 9.75412L368.847 11.2044L369.863 2.90271L365.575 14.4416L370.405 12.9913L369.363 21.2412Z" fill="#ED042E"/>
<path d="M391.718 21.2412L395.981 9.75412L391.202 11.2044L392.218 2.90271L387.93 14.4416L392.76 12.9913L391.718 21.2412Z" fill="#ED042E"/>
<path d="M414.073 21.2412L418.335 9.75412L413.557 11.2044L414.573 2.90271L410.285 14.4416L415.115 12.9913L414.073 21.2412Z" fill="#ED042E"/>
<path d="M436.428 21.2412L440.69 9.75412L435.912 11.2044L436.928 2.90271L432.64 14.4416L437.47 12.9913L436.428 21.2412Z" fill="#ED042E"/>
<path d="M458.782 21.2412L463.045 9.75412L458.267 11.2044L459.283 2.90271L454.994 14.4416L459.825 12.9913L458.782 21.2412Z" fill="#ED042E"/>
<path d="M481.138 21.2412L485.4 9.75412L480.622 11.2044L481.638 2.90271L477.349 14.4416L482.18 12.9913L481.138 21.2412Z" fill="#ED042E"/>
<path d="M503.492 21.2412L507.755 9.75412L502.977 11.2044L503.993 2.90271L499.704 14.4416L504.535 12.9913L503.492 21.2412Z" fill="#ED042E"/>
<path d="M525.847 21.2412L530.11 9.75412L525.331 11.2044L526.348 2.90271L522.059 14.4416L526.89 12.9913L525.847 21.2412Z" fill="#ED042E"/>
<path d="M548.202 21.2412L552.465 9.75412L547.686 11.2044L548.703 2.90271L544.414 14.4416L549.245 12.9913L548.202 21.2412Z" fill="#ED042E"/>
<path d="M570.557 21.2412L574.82 9.75412L570.041 11.2044L571.058 2.90271L566.769 14.4416L571.599 12.9913L570.557 21.2412Z" fill="#ED042E"/>
<path d="M592.912 21.2412L597.175 9.75412L592.396 11.2044L593.413 2.90271L589.124 14.4416L593.954 12.9913L592.912 21.2412Z" fill="#ED042E"/>
<path d="M615.267 21.2412L619.529 9.75412L614.751 11.2044L615.767 2.90271L611.479 14.4416L616.309 12.9913L615.267 21.2412Z" fill="#ED042E"/>
<path d="M637.622 21.2412L641.885 9.75412L637.106 11.2044L638.122 2.90271L633.834 14.4416L638.664 12.9913L637.622 21.2412Z" fill="#ED042E"/>
<path d="M659.977 21.2412L664.24 9.75412L659.461 11.2044L660.478 2.90271L656.189 14.4416L661.019 12.9913L659.977 21.2412Z" fill="#ED042E"/>
<path d="M682.332 21.2412L686.594 9.75412L681.816 11.2044L682.832 2.90271L678.544 14.4416L683.374 12.9913L682.332 21.2412Z" fill="#ED042E"/>
<path d="M704.687 21.2412L708.949 9.75412L704.171 11.2044L705.187 2.90271L700.899 14.4416L705.729 12.9913L704.687 21.2412Z" fill="#ED042E"/>
<path d="M727.041 21.2412L731.304 9.75412L726.526 11.2044L727.542 2.90271L723.253 14.4416L728.084 12.9913L727.041 21.2412Z" fill="#ED042E"/>
<path d="M749.397 21.2412L753.659 9.75412L748.881 11.2044L749.897 2.90271L745.608 14.4416L750.439 12.9913L749.397 21.2412Z" fill="#ED042E"/>
<path d="M771.751 21.2412L776.014 9.75412L771.235 11.2044L772.252 2.90271L767.963 14.4416L772.793 12.9913L771.751 21.2412Z" fill="#ED042E"/>
<path d="M794.106 21.2412L798.369 9.75412L793.59 11.2044L794.607 2.90271L790.318 14.4416L795.149 12.9913L794.106 21.2412Z" fill="#ED042E"/>
<path d="M816.461 21.2412L820.724 9.75412L815.945 11.2044L816.962 2.90271L812.673 14.4416L817.503 12.9913L816.461 21.2412Z" fill="#ED042E"/>
<path d="M838.816 21.2412L843.079 9.75412L838.3 11.2044L839.317 2.90271L835.028 14.4416L839.858 12.9913L838.816 21.2412Z" fill="#ED042E"/>
<path d="M861.171 21.2412L865.433 9.75412L860.655 11.2044L861.671 2.90271L857.383 14.4416L862.213 12.9913L861.171 21.2412Z" fill="#ED042E"/>
<path d="M883.526 21.2412L887.788 9.75412L883.01 11.2044L884.026 2.90271L879.738 14.4416L884.568 12.9913L883.526 21.2412Z" fill="#ED042E"/>
<path d="M905.881 21.2412L910.143 9.75412L905.365 11.2044L906.381 2.90271L902.093 14.4416L906.923 12.9913L905.881 21.2412Z" fill="#ED042E"/>
<path d="M928.236 21.2412L932.499 9.75412L927.72 11.2044L928.736 2.90271L924.448 14.4416L929.278 12.9913L928.236 21.2412Z" fill="#ED042E"/>
<path d="M950.591 21.2412L954.853 9.75412L950.075 11.2044L951.091 2.90271L946.802 14.4416L951.633 12.9913L950.591 21.2412Z" fill="#ED042E"/>
<path d="M972.946 21.2412L977.208 9.75412L972.43 11.2044L973.446 2.90271L969.158 14.4416L973.988 12.9913L972.946 21.2412Z" fill="#ED042E"/>
<path d="M995.3 21.2412L999.563 9.75412L994.785 11.2044L995.801 2.90271L991.512 14.4416L996.343 12.9913L995.3 21.2412Z" fill="#ED042E"/>
<path d="M1017.66 21.2412L1021.92 9.75412L1017.14 11.2044L1018.16 2.90271L1013.87 14.4416L1018.7 12.9913L1017.66 21.2412Z" fill="#ED042E"/>
<path d="M1040.01 21.2412L1044.27 9.75412L1039.49 11.2044L1040.51 2.90271L1036.22 14.4416L1041.05 12.9913L1040.01 21.2412Z" fill="#ED042E"/>
<path d="M1062.37 21.2412L1066.63 9.75412L1061.85 11.2044L1062.87 2.90271L1058.58 14.4416L1063.41 12.9913L1062.37 21.2412Z" fill="#ED042E"/>
<path d="M1084.72 21.2412L1088.98 9.75412L1084.2 11.2044L1085.22 2.90271L1080.93 14.4416L1085.76 12.9913L1084.72 21.2412Z" fill="#ED042E"/>
<path d="M1107.08 21.2412L1111.34 9.75412L1106.56 11.2044L1107.58 2.90271L1103.29 14.4416L1108.12 12.9913L1107.08 21.2412Z" fill="#ED042E"/>
<path d="M1129.43 21.2412L1133.69 9.75412L1128.91 11.2044L1129.93 2.90271L1125.64 14.4416L1130.47 12.9913L1129.43 21.2412Z" fill="#ED042E"/>
<path d="M1151.79 21.2412L1156.05 9.75412L1151.27 11.2044L1152.29 2.90271L1148 14.4416L1152.83 12.9913L1151.79 21.2412Z" fill="#ED042E"/>
<path d="M1174.14 21.2412L1178.4 9.75412L1173.62 11.2044L1174.64 2.90271L1170.35 14.4416L1175.18 12.9913L1174.14 21.2412Z" fill="#ED042E"/>
<path d="M1196.5 21.2412L1200.76 9.75412L1195.98 11.2044L1197 2.90271L1192.71 14.4416L1197.54 12.9913L1196.5 21.2412Z" fill="#ED042E"/>
<path d="M1218.85 21.2412L1223.11 9.75412L1218.33 11.2044L1219.35 2.90271L1215.06 14.4416L1219.89 12.9913L1218.85 21.2412Z" fill="#ED042E"/>
<path d="M1241.21 21.2412L1245.47 9.75412L1240.69 11.2044L1241.71 2.90271L1237.42 14.4416L1242.25 12.9913L1241.21 21.2412Z" fill="#ED042E"/>
<path d="M1263.56 21.2412L1267.82 9.75412L1263.04 11.2044L1264.06 2.90271L1259.77 14.4416L1264.6 12.9913L1263.56 21.2412Z" fill="#ED042E"/>
<path d="M1285.92 21.2412L1290.18 9.75412L1285.4 11.2044L1286.42 2.90271L1282.13 14.4416L1286.96 12.9913L1285.92 21.2412Z" fill="#ED042E"/>
</svg>
