<svg width="28" height="29" viewBox="0 0 28 29" fill="none" xmlns="http://www.w3.org/2000/svg">
<path d="M4.31964 20.1873C6.40368 20.3046 8.22609 19.8174 10.0034 18.5273C8.20805 18.2205 6.96304 17.3995 6.2864 15.7034C6.80967 15.6312 7.26978 15.7666 7.81109 15.55C6.04282 14.7742 4.89704 13.6104 4.85193 11.5985C5.41128 11.6436 5.83531 12.0135 6.50293 11.9594C4.879 10.3715 4.38279 8.63933 5.40226 6.53725C7.09836 8.48596 9.08317 9.81217 11.51 10.4347C11.6454 10.4708 11.7717 10.5068 11.907 10.5339C12.5295 10.6783 13.2693 10.985 13.6482 10.9399C14.2978 10.8587 13.6482 10.1099 13.8106 9.13553C14.3249 6.1042 17.6629 4.72386 20.1349 6.50116C20.8567 7.02442 21.425 7.0154 22.1377 6.69964C22.5076 6.53725 22.8866 6.37485 23.3286 6.18539C23.2294 7.05149 22.5618 7.52965 22.0295 8.1702C22.634 8.30552 23.1211 8.13411 23.6805 7.95367C23.491 8.57618 23.0219 8.92803 22.5979 9.27086C22.1558 9.62271 21.9844 9.99261 21.9663 10.57C21.6957 19.3122 11.7627 26.0695 4.96922 20.6925C4.31063 20.1692 4.95117 20.6925 4.31964 20.1873Z" fill="white"/>
</svg>
